<?xml version="1.0" encoding="UTF-8"?>
<svg xmlns="http://www.w3.org/2000/svg" xmlns:xlink="http://www.w3.org/1999/xlink" width="2484" height="830" viewBox="0 0 2484 830">
<rect x="-248.4" y="-83" width="2980.8" height="996" fill="rgb(100%, 100%, 100%)" fill-opacity="1"/>
<path fill-rule="nonzero" fill="rgb(60%, 30%, 70%)" fill-opacity="1" d="M 0 679.925781 L 99.972656 679.925781 L 99.972656 779.898438 L 0 779.898438 Z M 0 679.925781 "/>
<path fill-rule="nonzero" fill="rgb(60%, 60%, 60%)" fill-opacity="1" d="M 99.972656 679.925781 L 434.085938 679.925781 L 434.085938 779.898438 L 99.972656 779.898438 Z M 99.972656 679.925781 "/>
<path fill-rule="nonzero" fill="rgb(0%, 0%, 50%)" fill-opacity="1" d="M 484.074219 130.078125 L 2409.019531 130.078125 L 2409.019531 180.066406 L 484.074219 180.066406 Z M 484.074219 130.078125 "/>
<path fill-rule="nonzero" fill="rgb(20%, 70%, 30%)" fill-opacity="1" d="M 434.085938 180.066406 L 484.074219 180.066406 L 484.074219 679.925781 L 434.085938 679.925781 Z M 434.085938 180.066406 "/>
<path fill-rule="nonzero" fill="rgb(60%, 60%, 60%)" fill-opacity="1" d="M 434.085938 729.910156 L 763.699219 729.910156 L 763.699219 779.898438 L 434.085938 779.898438 Z M 434.085938 729.910156 "/>
<path fill-rule="nonzero" fill="rgb(30%, 30%, 100%)" fill-opacity="1" d="M 788.695312 554.960938 L 1905.929688 554.960938 L 1905.929688 579.953125 L 788.695312 579.953125 Z M 788.695312 554.960938 "/>
<path fill-rule="nonzero" fill="rgb(60%, 60%, 60%)" fill-opacity="1" d="M 763.699219 754.90625 L 1080.820312 754.90625 L 1080.820312 779.898438 L 763.699219 779.898438 Z M 763.699219 754.90625 "/>
<path fill-rule="nonzero" fill="rgb(20%, 70%, 30%)" fill-opacity="1" d="M 763.699219 579.953125 L 788.695312 579.953125 L 788.695312 729.910156 L 763.699219 729.910156 Z M 763.699219 579.953125 "/>
<path fill-rule="nonzero" fill="rgb(10%, 10%, 60%)" fill-opacity="1" d="M 1105.8125 355.015625 L 1472.363281 355.015625 L 1472.363281 380.011719 L 1105.8125 380.011719 Z M 1105.8125 355.015625 "/>
<path fill-rule="nonzero" fill="rgb(20%, 70%, 30%)" fill-opacity="1" d="M 1080.820312 380.011719 L 1105.8125 380.011719 L 1105.8125 754.90625 L 1080.820312 754.90625 Z M 1080.820312 380.011719 "/>
<path fill-rule="nonzero" fill="rgb(60%, 30%, 70%)" fill-opacity="1" d="M 1472.363281 280.039062 L 1497.355469 280.039062 L 1497.355469 355.015625 L 1472.363281 355.015625 Z M 1472.363281 280.039062 "/>
<path fill-rule="nonzero" fill="rgb(60%, 30%, 70%)" fill-opacity="1" d="M 1905.929688 479.980469 L 1930.921875 479.980469 L 1930.921875 554.960938 L 1905.929688 554.960938 Z M 1905.929688 479.980469 "/>
<path fill-rule="nonzero" fill="rgb(60%, 30%, 70%)" fill-opacity="1" d="M 2409.019531 80.09375 L 2459.007812 80.09375 L 2459.007812 130.078125 L 2409.019531 130.078125 Z M 2409.019531 80.09375 "/>
<path fill-rule="nonzero" fill="rgb(60%, 30%, 70%)" fill-opacity="1" d="M 0 629.941406 L 0 679.925781 L 99.972656 679.925781 Z M 0 629.941406 "/>
<path fill-rule="nonzero" fill="rgb(60%, 30%, 70%)" fill-opacity="1" d="M 0 829.882812 L 0 779.898438 L 99.972656 779.898438 Z M 0 829.882812 "/>
<path fill-rule="nonzero" fill="rgb(20%, 70%, 30%)" fill-opacity="1" d="M 459.078125 390.007812 L 409.09375 469.984375 L 509.066406 469.984375 Z M 459.078125 390.007812 "/>
<path fill-rule="nonzero" fill="rgb(20%, 70%, 30%)" fill-opacity="1" d="M 776.199219 634.9375 L 751.203125 674.925781 L 801.191406 674.925781 Z M 776.199219 634.9375 "/>
<path fill-rule="nonzero" fill="rgb(20%, 70%, 30%)" fill-opacity="1" d="M 1093.316406 547.460938 L 1068.324219 587.453125 L 1118.308594 587.453125 Z M 1093.316406 547.460938 "/>
<path fill-rule="nonzero" fill="rgb(60%, 30%, 70%)" fill-opacity="1" d="M 1484.859375 240.050781 L 1459.867188 280.039062 L 1509.851562 280.039062 Z M 1484.859375 240.050781 "/>
<path fill-rule="nonzero" fill="rgb(60%, 30%, 70%)" fill-opacity="1" d="M 1918.425781 439.992188 L 1893.433594 479.980469 L 1943.417969 479.980469 Z M 1918.425781 439.992188 "/>
<path fill-rule="nonzero" fill="rgb(60%, 30%, 70%)" fill-opacity="1" d="M 2434.015625 0.117188 L 2384.027344 80.09375 L 2484 80.09375 Z M 2434.015625 0.117188 "/>
<path fill-rule="nonzero" fill="rgb(20%, 70%, 30%)" fill-opacity="1" d="M 434.085938 679.925781 L 484.074219 679.925781 C 484.074219 707.53125 461.691406 729.910156 434.085938 729.910156 Z M 434.085938 679.925781 "/>
<path fill-rule="nonzero" fill="rgb(0%, 0%, 50%)" fill-opacity="1" d="M 484.074219 180.066406 L 434.085938 180.066406 C 434.085938 152.460938 456.464844 130.078125 484.074219 130.078125 Z M 484.074219 180.066406 "/>
<path fill-rule="nonzero" fill="rgb(20%, 70%, 30%)" fill-opacity="1" d="M 763.699219 729.910156 L 788.695312 729.910156 C 788.695312 743.714844 777.503906 754.90625 763.699219 754.90625 Z M 763.699219 729.910156 "/>
<path fill-rule="nonzero" fill="rgb(30%, 30%, 100%)" fill-opacity="1" d="M 788.695312 579.953125 L 763.699219 579.953125 C 763.699219 566.152344 774.890625 554.960938 788.695312 554.960938 Z M 788.695312 579.953125 "/>
<path fill-rule="nonzero" fill="rgb(20%, 70%, 30%)" fill-opacity="1" d="M 1080.820312 754.90625 L 1105.8125 754.90625 C 1105.8125 768.707031 1094.621094 779.898438 1080.820312 779.898438 Z M 1080.820312 754.90625 "/>
<path fill-rule="nonzero" fill="rgb(10%, 10%, 60%)" fill-opacity="1" d="M 1105.8125 380.011719 L 1080.820312 380.011719 C 1080.820312 366.207031 1092.007812 355.015625 1105.8125 355.015625 Z M 1105.8125 380.011719 "/>
<path fill-rule="nonzero" fill="rgb(60%, 30%, 70%)" fill-opacity="1" d="M 1472.363281 355.015625 L 1497.355469 355.015625 C 1497.355469 368.820312 1486.167969 380.011719 1472.363281 380.011719 Z M 1472.363281 355.015625 "/>
<path fill-rule="nonzero" fill="rgb(60%, 30%, 70%)" fill-opacity="1" d="M 1905.929688 554.960938 L 1930.921875 554.960938 C 1930.921875 568.765625 1919.734375 579.953125 1905.929688 579.953125 Z M 1905.929688 554.960938 "/>
<path fill-rule="nonzero" fill="rgb(60%, 30%, 70%)" fill-opacity="1" d="M 2409.019531 130.078125 L 2459.007812 130.078125 C 2459.007812 157.6875 2436.628906 180.066406 2409.019531 180.066406 Z M 2409.019531 130.078125 "/>
</svg>
