<?xml version="1.0" encoding="UTF-8"?>
<svg xmlns="http://www.w3.org/2000/svg" xmlns:xlink="http://www.w3.org/1999/xlink" width="1272" height="810" viewBox="0 0 1272 810">
<rect x="-127.2" y="-81" width="1526.4" height="972" fill="rgb(100%, 100%, 100%)" fill-opacity="1"/>
<path fill-rule="nonzero" fill="rgb(60%, 30%, 70%)" fill-opacity="1" d="M 0 659.984375 L 99.992188 659.984375 L 99.992188 759.980469 L 0 759.980469 Z M 0 659.984375 "/>
<path fill-rule="nonzero" fill="rgb(60%, 60%, 60%)" fill-opacity="1" d="M 99.992188 659.984375 L 1122.007812 659.984375 L 1122.007812 759.980469 L 99.992188 759.980469 Z M 99.992188 659.984375 "/>
<path fill-rule="nonzero" fill="rgb(60%, 30%, 70%)" fill-opacity="1" d="M 546.585938 260.007812 L 646.582031 260.007812 L 646.582031 360.003906 L 546.585938 360.003906 Z M 546.585938 260.007812 "/>
<path fill-rule="nonzero" fill="rgb(10%, 10%, 90%)" fill-opacity="1" d="M 646.582031 260.007812 L 1122.007812 260.007812 L 1122.007812 360.003906 L 646.582031 360.003906 Z M 646.582031 260.007812 "/>
<path fill-rule="nonzero" fill="rgb(60%, 30%, 70%)" fill-opacity="1" d="M 1122.007812 559.992188 L 1222.003906 559.992188 L 1222.003906 659.984375 L 1122.007812 659.984375 Z M 1122.007812 559.992188 "/>
<path fill-rule="nonzero" fill="rgb(60%, 30%, 70%)" fill-opacity="1" d="M 1122.007812 160.015625 L 1222.003906 160.015625 L 1222.003906 260.007812 L 1122.007812 260.007812 Z M 1122.007812 160.015625 "/>
<path fill-rule="nonzero" fill="rgb(60%, 30%, 70%)" fill-opacity="1" d="M 0 609.988281 L 0 659.984375 L 99.992188 659.984375 Z M 0 609.988281 "/>
<path fill-rule="nonzero" fill="rgb(60%, 30%, 70%)" fill-opacity="1" d="M 0 809.976562 L 0 759.980469 L 99.992188 759.980469 Z M 0 809.976562 "/>
<path fill-rule="nonzero" fill="rgb(60%, 30%, 70%)" fill-opacity="1" d="M 546.585938 210.011719 L 546.585938 260.007812 L 646.582031 260.007812 Z M 546.585938 210.011719 "/>
<path fill-rule="nonzero" fill="rgb(60%, 30%, 70%)" fill-opacity="1" d="M 546.585938 410 L 546.585938 360.003906 L 646.582031 360.003906 Z M 546.585938 410 "/>
<path fill-rule="nonzero" fill="rgb(60%, 30%, 70%)" fill-opacity="1" d="M 1172.007812 400 L 1072.011719 559.992188 L 1272 559.992188 Z M 1172.007812 400 "/>
<path fill-rule="nonzero" fill="rgb(60%, 30%, 70%)" fill-opacity="1" d="M 1172.007812 0.0234375 L 1072.011719 160.015625 L 1272 160.015625 Z M 1172.007812 0.0234375 "/>
<path fill-rule="nonzero" fill="rgb(60%, 30%, 70%)" fill-opacity="1" d="M 1122.007812 659.984375 L 1222.003906 659.984375 C 1222.003906 715.210938 1177.234375 759.980469 1122.007812 759.980469 Z M 1122.007812 659.984375 "/>
<path fill-rule="nonzero" fill="rgb(60%, 30%, 70%)" fill-opacity="1" d="M 1122.007812 260.007812 L 1222.003906 260.007812 C 1222.003906 315.234375 1177.234375 360.003906 1122.007812 360.003906 Z M 1122.007812 260.007812 "/>
</svg>
