<?xml version="1.0" encoding="UTF-8"?>
<svg xmlns="http://www.w3.org/2000/svg" xmlns:xlink="http://www.w3.org/1999/xlink" width="1332" height="700" viewBox="0 0 1332 700">
<rect x="-133.2" y="-70" width="1598.4" height="840" fill="rgb(100%, 100%, 100%)" fill-opacity="1"/>
<path fill-rule="nonzero" fill="rgb(60%, 30%, 70%)" fill-opacity="0.7" d="M 0 599.847656 L 99.941406 599.847656 L 99.941406 699.789062 L 0 699.789062 Z M 0 599.847656 "/>
<path fill-rule="nonzero" fill="rgb(60%, 60%, 60%)" fill-opacity="0.7" d="M 99.941406 599.847656 L 237.949219 599.847656 L 237.949219 699.789062 L 99.941406 699.789062 Z M 99.941406 599.847656 "/>
<path fill-rule="nonzero" fill="rgb(20%, 70%, 30%)" fill-opacity="0.7" d="M 237.949219 100.152344 L 287.917969 100.152344 L 287.917969 599.847656 L 237.949219 599.847656 Z M 237.949219 100.152344 "/>
<path fill-rule="nonzero" fill="rgb(5%, 5%, 60%)" fill-opacity="0.7" d="M 287.917969 50.179688 L 514.90625 50.179688 L 514.90625 100.152344 L 287.917969 100.152344 Z M 287.917969 50.179688 "/>
<path fill-rule="nonzero" fill="rgb(60%, 60%, 60%)" fill-opacity="0.7" d="M 237.949219 649.820312 L 514.90625 649.820312 L 514.90625 699.789062 L 237.949219 699.789062 Z M 237.949219 649.820312 "/>
<path fill-rule="nonzero" fill="rgb(60%, 30%, 70%)" fill-opacity="0.7" d="M 514.90625 599.847656 L 564.875 599.847656 L 564.875 649.820312 L 514.90625 649.820312 Z M 514.90625 599.847656 "/>
<path fill-rule="nonzero" fill="rgb(60%, 30%, 70%)" fill-opacity="0.7" d="M 514.90625 0.210938 L 564.875 0.210938 L 564.875 50.179688 L 514.90625 50.179688 Z M 514.90625 0.210938 "/>
<path fill-rule="nonzero" fill="rgb(20%, 70%, 30%)" fill-opacity="0.7" d="M 237.949219 599.847656 L 287.917969 599.847656 C 287.917969 627.445312 265.546875 649.820312 237.949219 649.820312 Z M 237.949219 599.847656 "/>
<path fill-rule="nonzero" fill="rgb(5%, 5%, 60%)" fill-opacity="0.7" d="M 287.917969 100.152344 L 237.949219 100.152344 C 237.949219 72.554688 260.320312 50.179688 287.917969 50.179688 Z M 287.917969 100.152344 "/>
<path fill-rule="nonzero" fill="rgb(60%, 30%, 70%)" fill-opacity="0.7" d="M 514.90625 649.820312 L 564.875 649.820312 C 564.875 677.414062 542.503906 699.789062 514.90625 699.789062 Z M 514.90625 649.820312 "/>
<path fill-rule="nonzero" fill="rgb(60%, 30%, 70%)" fill-opacity="0.7" d="M 564.875 599.847656 L 514.90625 599.847656 C 514.90625 572.25 537.277344 549.878906 564.875 549.878906 Z M 564.875 599.847656 "/>
<path fill-rule="nonzero" fill="rgb(60%, 30%, 70%)" fill-opacity="0.7" d="M 514.90625 50.179688 L 564.875 50.179688 C 564.875 77.777344 542.503906 100.152344 514.90625 100.152344 Z M 514.90625 50.179688 "/>
<path fill-rule="nonzero" fill="rgb(60%, 30%, 70%)" fill-opacity="0.7" d="M 564.875 0.210938 L 514.90625 0.210938 C 514.90625 -27.386719 537.277344 -49.757812 564.875 -49.757812 Z M 564.875 0.210938 "/>
</svg>
