<?xml version="1.0" encoding="UTF-8"?>
<svg xmlns="http://www.w3.org/2000/svg" xmlns:xlink="http://www.w3.org/1999/xlink" width="1652" height="530" viewBox="0 0 1652 530">
<rect x="-165.2" y="-53" width="1982.4" height="636" fill="rgb(100%, 100%, 100%)" fill-opacity="1"/>
<path fill-rule="nonzero" fill="rgb(60%, 30%, 70%)" fill-opacity="1" d="M 0 499.976562 L 99.992188 499.976562 L 99.992188 519.976562 L 0 519.976562 Z M 0 499.976562 "/>
<path fill-rule="nonzero" fill="rgb(60%, 60%, 60%)" fill-opacity="1" d="M 99.992188 499.976562 L 470.691406 499.976562 L 470.691406 519.976562 L 99.992188 519.976562 Z M 99.992188 499.976562 "/>
<path fill-rule="nonzero" fill="rgb(20%, 70%, 30%)" fill-opacity="1" d="M 470.691406 120.015625 L 490.6875 120.015625 L 490.6875 499.976562 L 470.691406 499.976562 Z M 470.691406 120.015625 "/>
<path fill-rule="nonzero" fill="rgb(10%, 10%, 90%)" fill-opacity="1" d="M 490.6875 100.015625 L 1542.011719 100.015625 L 1542.011719 120.015625 L 490.6875 120.015625 Z M 490.6875 100.015625 "/>
<path fill-rule="nonzero" fill="rgb(60%, 30%, 70%)" fill-opacity="1" d="M 861.386719 220.003906 L 961.378906 220.003906 L 961.378906 319.996094 L 861.386719 319.996094 Z M 861.386719 220.003906 "/>
<path fill-rule="nonzero" fill="rgb(60%, 60%, 90%)" fill-opacity="1" d="M 961.378906 220.003906 L 1502.015625 220.003906 L 1502.015625 319.996094 L 961.378906 319.996094 Z M 961.378906 220.003906 "/>
<path fill-rule="nonzero" fill="rgb(60%, 30%, 70%)" fill-opacity="1" d="M 1502.015625 160.011719 L 1602.003906 160.011719 L 1602.003906 220.003906 L 1502.015625 220.003906 Z M 1502.015625 160.011719 "/>
<path fill-rule="nonzero" fill="rgb(60%, 30%, 70%)" fill-opacity="1" d="M 1542.011719 40.023438 L 1562.007812 40.023438 L 1562.007812 100.015625 L 1542.011719 100.015625 Z M 1542.011719 40.023438 "/>
<path fill-rule="nonzero" fill="rgb(20%, 70%, 30%)" fill-opacity="1" d="M 470.691406 499.976562 L 490.6875 499.976562 C 490.6875 511.023438 481.734375 519.976562 470.691406 519.976562 Z M 470.691406 499.976562 "/>
<path fill-rule="nonzero" fill="rgb(10%, 10%, 90%)" fill-opacity="1" d="M 490.6875 120.015625 L 470.691406 120.015625 C 470.691406 108.96875 479.644531 100.015625 490.6875 100.015625 Z M 490.6875 120.015625 "/>
<path fill-rule="nonzero" fill="rgb(60%, 30%, 70%)" fill-opacity="1" d="M 1502.015625 220.003906 L 1602.003906 220.003906 C 1602.003906 275.226562 1557.238281 319.996094 1502.015625 319.996094 Z M 1502.015625 220.003906 "/>
<path fill-rule="nonzero" fill="rgb(60%, 30%, 70%)" fill-opacity="1" d="M 1542.011719 100.015625 L 1562.007812 100.015625 C 1562.007812 111.0625 1553.054688 120.015625 1542.011719 120.015625 Z M 1542.011719 100.015625 "/>
<path fill-rule="nonzero" fill="rgb(60%, 30%, 70%)" fill-opacity="1" d="M 0 489.976562 L 0 499.976562 L 99.992188 499.976562 Z M 0 489.976562 "/>
<path fill-rule="nonzero" fill="rgb(60%, 30%, 70%)" fill-opacity="1" d="M 0 529.972656 L 0 519.976562 L 99.992188 519.976562 Z M 0 529.972656 "/>
<path fill-rule="nonzero" fill="rgb(60%, 30%, 70%)" fill-opacity="1" d="M 861.386719 170.007812 L 861.386719 220.003906 L 961.378906 220.003906 Z M 861.386719 170.007812 "/>
<path fill-rule="nonzero" fill="rgb(60%, 30%, 70%)" fill-opacity="1" d="M 861.386719 369.988281 L 861.386719 319.996094 L 961.378906 319.996094 Z M 861.386719 369.988281 "/>
<path fill-rule="nonzero" fill="rgb(60%, 30%, 70%)" fill-opacity="1" d="M 1552.007812 0.0273438 L 1452.019531 160.011719 L 1652 160.011719 Z M 1552.007812 0.0273438 "/>
<path fill-rule="nonzero" fill="rgb(60%, 30%, 70%)" fill-opacity="1" d="M 1552.007812 8.023438 L 1532.011719 40.023438 L 1572.007812 40.023438 Z M 1552.007812 8.023438 "/>
</svg>
