<?xml version="1.0" encoding="UTF-8"?>
<svg xmlns="http://www.w3.org/2000/svg" xmlns:xlink="http://www.w3.org/1999/xlink" width="875" height="872" viewBox="0 0 875 872">
<rect x="-87.5" y="-87.2" width="1050" height="1046.4" fill="rgb(100%, 100%, 100%)" fill-opacity="1"/>
<path fill-rule="nonzero" fill="rgb(60%, 30%, 70%)" fill-opacity="1" d="M 0 639.957031 L 99.980469 639.957031 L 99.980469 739.933594 L 0 739.933594 Z M 0 639.957031 "/>
<path fill-rule="nonzero" fill="rgb(60%, 60%, 60%)" fill-opacity="1" d="M 99.980469 639.957031 L 238.042969 639.957031 L 238.042969 739.933594 L 99.980469 739.933594 Z M 99.980469 639.957031 "/>
<path fill-rule="nonzero" fill="rgb(20%, 70%, 30%)" fill-opacity="1" d="M 238.042969 140.0625 L 288.03125 140.0625 L 288.03125 639.957031 L 238.042969 639.957031 Z M 238.042969 140.0625 "/>
<path fill-rule="nonzero" fill="rgb(5%, 5%, 60%)" fill-opacity="1" d="M 288.03125 90.074219 L 513.578125 90.074219 L 513.578125 140.0625 L 288.03125 140.0625 Z M 288.03125 90.074219 "/>
<path fill-rule="nonzero" fill="rgb(60%, 60%, 60%)" fill-opacity="1" d="M 238.042969 689.945312 L 801.515625 689.945312 L 801.515625 738.9375 L 238.042969 738.9375 Z M 238.042969 689.945312 "/>
<path fill-rule="nonzero" fill="rgb(60%, 30%, 70%)" fill-opacity="1" d="M 238.042969 739.933594 L 239.042969 739.933594 L 239.042969 839.914062 L 238.042969 839.914062 Z M 238.042969 739.933594 "/>
<path fill-rule="nonzero" fill="rgb(20%, 40%, 80%)" fill-opacity="1" d="M 438.59375 315.027344 L 813.511719 315.027344 L 813.511719 340.019531 L 438.59375 340.019531 Z M 438.59375 315.027344 "/>
<path fill-rule="nonzero" fill="rgb(90%, 10%, 10%)" fill-opacity="1" d="M 513.578125 140.0625 L 538.570312 140.0625 L 438.59375 315.027344 L 413.597656 315.027344 Z M 513.578125 140.0625 "/>
<path fill-rule="nonzero" fill="rgb(5%, 5%, 60%)" fill-opacity="1" d="M 513.578125 90.074219 L 713.535156 90.074219 L 713.535156 115.066406 L 513.578125 115.066406 Z M 513.578125 90.074219 "/>
<path fill-rule="nonzero" fill="rgb(60%, 30%, 70%)" fill-opacity="1" d="M 713.535156 40.085938 L 738.527344 40.085938 L 738.527344 90.074219 L 713.535156 90.074219 Z M 713.535156 40.085938 "/>
<path fill-rule="nonzero" fill="rgb(60%, 30%, 70%)" fill-opacity="1" d="M 813.511719 240.042969 L 838.507812 240.042969 L 838.507812 315.027344 L 813.511719 315.027344 Z M 813.511719 240.042969 "/>
<path fill-rule="nonzero" fill="rgb(60%, 30%, 70%)" fill-opacity="1" d="M 801.515625 639.957031 L 850.503906 639.957031 L 850.503906 689.945312 L 801.515625 689.945312 Z M 801.515625 639.957031 "/>
<path fill-rule="nonzero" fill="rgb(60%, 30%, 70%)" fill-opacity="1" d="M 0 589.96875 L 0 639.957031 L 99.980469 639.957031 Z M 0 589.96875 "/>
<path fill-rule="nonzero" fill="rgb(60%, 30%, 70%)" fill-opacity="1" d="M 0 789.925781 L 0 739.933594 L 99.980469 739.933594 Z M 0 789.925781 "/>
<path fill-rule="nonzero" fill="rgb(20%, 70%, 30%)" fill-opacity="1" d="M 263.035156 350.019531 L 213.046875 430 L 313.027344 430 Z M 263.035156 350.019531 "/>
<path fill-rule="nonzero" fill="rgb(60%, 30%, 70%)" fill-opacity="1" d="M 238.542969 871.90625 L 258.539062 839.914062 L 218.546875 839.914062 Z M 238.542969 871.90625 "/>
<path fill-rule="nonzero" fill="rgb(90%, 10%, 10%)" fill-opacity="1" d="M 466.164062 244.90625 L 507.707031 222.582031 L 464.304688 197.78125 Z M 466.164062 244.90625 "/>
<path fill-rule="nonzero" fill="rgb(60%, 30%, 70%)" fill-opacity="1" d="M 726.03125 0.09375 L 701.035156 40.085938 L 751.027344 40.085938 Z M 726.03125 0.09375 "/>
<path fill-rule="nonzero" fill="rgb(60%, 30%, 70%)" fill-opacity="1" d="M 826.011719 200.050781 L 801.015625 240.042969 L 851.003906 240.042969 Z M 826.011719 200.050781 "/>
<path fill-rule="nonzero" fill="rgb(60%, 30%, 70%)" fill-opacity="1" d="M 826.011719 561.574219 L 777.019531 639.957031 L 875 639.957031 Z M 826.011719 561.574219 "/>
<path fill-rule="nonzero" fill="rgb(20%, 70%, 30%)" fill-opacity="1" d="M 238.042969 639.957031 L 288.03125 639.957031 C 288.03125 667.566406 265.652344 689.945312 238.042969 689.945312 Z M 238.042969 639.957031 "/>
<path fill-rule="nonzero" fill="rgb(5%, 5%, 60%)" fill-opacity="1" d="M 288.03125 140.0625 L 238.042969 140.0625 C 238.042969 112.453125 260.421875 90.074219 288.03125 90.074219 Z M 288.03125 140.0625 "/>
<path fill-rule="nonzero" fill="rgb(60%, 30%, 70%)" fill-opacity="1" d="M 238.042969 739.933594 L 238.042969 738.9375 C 238.59375 738.9375 239.042969 739.382812 239.042969 739.933594 Z M 238.042969 739.933594 "/>
<path fill-rule="nonzero" fill="rgb(90%, 10%, 10%)" fill-opacity="1" d="M 513.578125 140.0625 L 513.578125 115.066406 C 527.382812 115.066406 538.570312 126.257812 538.570312 140.0625 Z M 513.578125 140.0625 "/>
<path fill-rule="nonzero" fill="rgb(20%, 40%, 80%)" fill-opacity="1" d="M 438.59375 315.027344 L 438.59375 340.019531 C 424.789062 340.019531 413.597656 328.828125 413.597656 315.027344 Z M 438.59375 315.027344 "/>
<path fill-rule="nonzero" fill="rgb(60%, 30%, 70%)" fill-opacity="1" d="M 713.535156 90.074219 L 738.527344 90.074219 C 738.527344 103.878906 727.339844 115.066406 713.535156 115.066406 Z M 713.535156 90.074219 "/>
<path fill-rule="nonzero" fill="rgb(60%, 30%, 70%)" fill-opacity="1" d="M 813.511719 315.027344 L 838.507812 315.027344 C 838.507812 328.828125 827.316406 340.019531 813.511719 340.019531 Z M 813.511719 315.027344 "/>
<path fill-rule="nonzero" fill="rgb(60%, 30%, 70%)" fill-opacity="1" d="M 801.515625 689.945312 L 850.503906 689.945312 C 850.503906 717.003906 828.570312 738.9375 801.515625 738.9375 Z M 801.515625 689.945312 "/>
</svg>
